<svg version="1.1" id="Layer_1" xmlns="http://www.w3.org/2000/svg" xmlns:xlink="http://www.w3.org/1999/xlink" x="0px" y="0px"
	 width="100%" viewBox="0 0 1024 1024" enable-background="new 0 0 1024 1024" xml:space="preserve">
<path fill="#000000" opacity="1.000000" stroke="none" 
	d="
M463.245178,156.246124 
	C439.748657,181.758728 414.757507,205.307236 390.926483,229.992706 
	C371.153046,250.475128 350.615356,270.200317 331.151337,290.996643 
	C314.544067,308.740631 297.348969,325.934448 280.413544,343.371277 
	C279.833099,343.968903 279.239746,344.554230 278.667480,345.159485 
	C271.432861,352.810822 271.510254,352.709290 266.013550,343.284393 
	C258.729736,330.795258 251.295532,318.389069 243.654007,306.116547 
	C241.589874,302.801453 242.387711,300.573761 244.712433,298.204407 
	C254.854401,287.867798 265.015900,277.550232 275.138092,267.194275 
	C303.429565,238.249374 331.658051,209.242722 360.001007,180.348373 
	C384.959961,154.903885 410.307129,129.834702 434.991028,104.127541 
	C459.567474,78.532303 484.773712,53.574673 509.792267,28.424454 
	C512.181458,26.022709 514.449707,24.434343 517.331604,27.581642 
	C534.997925,46.874706 553.748474,65.107574 572.225952,83.603767 
	C618.015442,129.439651 664.179138,174.910461 709.073669,221.624557 
	C731.349365,244.803131 754.044556,267.566650 776.291809,290.768127 
	C787.264099,302.211121 787.117615,302.134796 778.511230,315.031311 
	C772.056946,324.702881 765.961304,334.615417 759.787354,344.471619 
	C756.858337,349.147369 754.893616,349.445465 750.944824,345.430054 
	C689.743286,283.195953 628.998779,220.514343 567.437378,158.630814 
	C551.241516,142.350128 535.252380,125.831757 519.329529,109.265785 
	C514.654419,104.401848 514.412109,104.439751 509.484070,109.414139 
	C494.128265,124.914497 478.818512,140.460510 463.245178,156.246124 
z"/>
<path fill="#000000" opacity="1.000000" stroke="none" 
	d="
M708.615356,722.614319 
	C723.378662,707.668640 737.908508,692.989319 752.399963,678.272095 
	C756.808228,673.795105 757.835266,673.818481 761.287415,679.183472 
	C769.286560,691.614990 777.132141,704.146729 785.260315,716.492859 
	C787.729187,720.242981 787.311096,722.642578 784.102966,725.850708 
	C755.835327,754.117981 727.420288,782.250122 699.692017,811.041626 
	C659.136047,853.152588 617.391663,894.083923 576.635620,935.993286 
	C558.629944,954.508484 539.914001,972.341614 522.168823,991.097839 
	C512.233154,1001.599670 513.249146,998.824585 505.638123,991.181396 
	C489.892761,975.369568 474.516663,959.190796 458.846130,943.303467 
	C426.101166,910.105530 393.248749,877.013611 360.470734,843.848206 
	C343.837769,827.018738 327.282440,810.112488 310.670349,793.262390 
	C291.263733,773.577698 271.821808,753.927795 252.425278,734.233215 
	C249.276871,731.036438 245.540405,728.438354 242.888443,724.734009 
	C241.642349,722.993408 240.926270,721.402466 242.277679,719.286865 
	C250.958572,705.697327 259.668091,692.123718 268.131195,678.398743 
	C270.595795,674.401733 272.531250,674.873169 275.415833,677.785950 
	C319.852844,722.657410 364.316071,767.503052 408.822845,812.305420 
	C425.851898,829.447510 443.436188,846.060730 459.981659,863.654053 
	C476.422272,881.135803 493.811737,897.652344 510.410950,914.958496 
	C511.657898,916.258484 513.073486,917.396790 514.651062,918.828308 
	C521.687378,913.005859 527.622986,906.506348 533.781982,900.251831 
	C551.551758,882.206421 569.317566,864.156738 587.004211,846.030029 
	C601.075256,831.608887 614.900024,816.945923 629.060242,802.613831 
	C655.408997,775.945312 681.922363,749.439575 708.615356,722.614319 
z"/>
<path fill="#000000" opacity="1.000000" stroke="none" 
	d="
M227.860916,397.860352 
	C199.230484,427.193695 171.405838,456.817322 142.555573,485.444916 
	C135.110031,492.833008 127.990379,500.549469 120.720764,508.114838 
	C116.412613,512.598267 116.241562,513.543945 120.550491,517.982178 
	C135.981705,533.876526 152.098404,549.145813 166.904266,565.597900 
	C193.326157,594.957520 222.632187,621.480530 249.296509,650.581299 
	C251.923065,653.447815 252.101456,655.807129 250.150665,658.979187 
	C242.408508,671.568481 234.798691,684.239136 227.132568,696.875244 
	C223.548920,702.782227 223.102325,703.052429 218.111404,698.032593 
	C200.732788,680.553345 183.591583,662.838379 166.269363,645.302673 
	C149.762238,628.592163 132.758331,612.354675 116.659340,595.262634 
	C91.533577,568.587036 65.207809,543.100098 39.836128,516.674255 
	C37.522179,514.264099 37.244686,512.481201 39.715687,509.971680 
	C68.928604,480.303406 98.531357,451.023132 127.424271,421.034424 
	C158.038254,389.259430 189.093643,357.909607 219.970734,326.388275 
	C223.767395,322.512421 225.573990,322.836334 228.306076,327.495544 
	C236.116379,340.815033 243.156921,354.590668 251.726135,367.455292 
	C253.651138,370.345215 252.999435,372.236511 250.843994,374.412689 
	C243.225418,382.104736 235.683197,389.872406 227.860916,397.860352 
z"/>
<path fill="#000000" opacity="1.000000" stroke="none" 
	d="
M887.270874,406.738037 
	C920.985474,440.891937 954.394836,474.849091 987.979492,508.632019 
	C991.389343,512.061951 991.537659,514.204407 988.123901,517.587891 
	C969.309875,536.235474 950.376526,554.776367 932.027344,573.875793 
	C908.717407,598.138733 884.204956,621.211426 861.093506,645.642212 
	C844.717285,662.953247 827.748169,679.653442 811.071289,696.653015 
	C805.807739,702.018494 804.979126,701.901306 801.254517,695.730103 
	C793.700623,683.214172 786.218506,670.654297 778.557861,658.204163 
	C776.721069,655.218933 776.325989,652.890747 779.207336,650.342773 
	C791.444275,639.521729 801.882874,626.924133 813.484741,615.462830 
	C829.004333,600.131287 844.215698,584.485474 859.445557,568.863586 
	C876.407959,551.464478 893.200012,533.899353 910.174438,516.512085 
	C912.999573,513.618286 913.077759,511.490875 910.209717,508.575897 
	C892.222473,490.294769 874.418335,471.833557 856.429077,453.554474 
	C835.627014,432.417175 814.523376,411.573395 793.935181,390.231262 
	C788.286377,384.375671 782.760315,378.376526 777.011536,372.603943 
	C774.930115,370.513916 774.634033,368.457977 776.177490,365.907196 
	C784.008667,352.965820 791.705139,339.942474 799.598938,327.039764 
	C802.208435,322.774536 804.520752,322.474365 807.925354,326.042419 
	C824.249878,343.150787 841.631714,359.220184 857.497925,376.785492 
	C862.388550,382.199768 868.177490,386.791962 873.351013,391.964630 
	C878.049927,396.662842 882.471436,401.638519 887.270874,406.738037 
z"/>
<path fill="#000000" opacity="1.000000" stroke="none" 
	d="
M624.765991,415.768433 
	C637.787231,402.390076 650.710632,389.405640 663.240295,376.051758 
	C666.708435,372.355560 668.888062,372.570923 672.034851,376.001495 
	C678.225891,382.750916 684.515503,389.420105 691.002625,395.883392 
	C694.387268,399.255585 694.166809,401.760834 690.821228,405.039490 
	C677.141846,418.445312 663.772705,432.157623 650.513794,445.985931 
	C625.862793,471.695496 600.775757,496.987335 576.169189,522.738770 
	C568.582397,530.678589 560.988586,538.616333 553.373535,546.531616 
	C552.195312,547.756287 551.322876,549.008850 551.076294,550.807373 
	C548.914917,566.570557 537.459229,578.294922 522.115723,581.688416 
	C497.721497,587.083679 479.539825,568.173523 477.454285,552.295227 
	C476.651947,546.186768 473.625702,542.296204 469.686646,538.472290 
	C438.373108,508.074310 408.474670,476.253754 376.854279,446.162659 
	C371.790039,441.343323 367.133942,436.097168 362.127106,431.214508 
	C359.628021,428.777435 359.833588,426.837616 362.149414,424.474335 
	C369.141754,417.338867 376.064972,410.134674 382.945251,402.890869 
	C385.422089,400.283173 387.515656,400.267242 390.084839,402.890259 
	C412.216095,425.485321 434.372345,448.056366 456.615631,470.541077 
	C469.372803,483.436707 482.328949,496.135254 495.137817,508.980103 
	C497.560791,511.409912 499.447601,512.367554 503.276917,510.728638 
	C510.564728,507.609497 518.558838,507.441315 525.928955,510.602173 
	C530.217041,512.441223 532.477112,510.673920 535.028198,508.084167 
	C551.506348,491.355743 568.072388,474.712982 584.449219,457.885956 
	C597.921143,444.043671 611.171082,429.985413 624.765991,415.768433 
z"/>
<path fill="#000000" opacity="1.000000" stroke="none" 
	d="
M828.881958,498.121674 
	C835.284302,498.906555 837.197021,500.935059 837.289612,506.727661 
	C837.350769,510.555115 837.373108,514.385742 837.290894,518.212280 
	C837.163818,524.127502 833.540039,526.715942 827.701843,526.536743 
	C813.746277,526.108643 799.764893,525.639709 785.819458,526.810120 
	C780.884827,527.224243 775.679138,523.277710 776.144836,518.458801 
	C776.422729,515.583679 776.177673,512.851929 775.963623,510.051453 
	C775.442993,503.241455 779.726440,498.725189 786.536011,498.639374 
	C800.509766,498.463348 814.494446,499.180969 828.881958,498.121674 
z"/>
<path fill="#000000" opacity="1.000000" stroke="none" 
	d="
M200.204895,526.300232 
	C191.332779,526.110657 188.917374,523.318665 189.755402,514.811829 
	C189.869247,513.656128 189.941101,512.489746 189.929306,511.329315 
	C189.823120,500.885956 191.928589,498.802643 202.161560,498.648682 
	C215.118286,498.453766 228.078888,499.035736 241.035202,498.263062 
	C246.786407,497.920105 251.032272,502.275330 251.125458,508.134613 
	C251.167740,510.792999 251.129913,513.452637 251.130417,516.111755 
	C251.131866,523.816040 248.662262,526.295166 241.061874,526.289124 
	C227.600311,526.278320 214.138733,526.290039 200.204895,526.300232 
z"/>
<path fill="#000000" opacity="1.000000" stroke="none" 
	d="
M500.766785,230.943420 
	C500.770447,218.976868 500.771057,207.500977 500.781921,196.025085 
	C500.790100,187.370316 504.579559,183.727219 513.365173,183.951248 
	C517.769226,184.063568 522.441528,183.133881 525.582275,187.688217 
	C526.758423,189.393814 527.719727,191.002625 527.610962,193.133987 
	C526.881653,207.425537 527.715149,221.707321 527.913696,235.992935 
	C528.026062,244.081757 525.742676,246.416687 517.635132,246.370438 
	C515.306885,246.357147 512.977966,246.388260 510.650330,246.347305 
	C503.354431,246.218933 500.914948,243.761398 500.780823,236.423584 
	C500.750427,234.760895 500.771027,233.097290 500.766785,230.943420 
z"/>
<path fill="#000000" opacity="1.000000" stroke="none" 
	d="
M508.591736,777.810303 
	C512.190247,777.781555 515.355774,777.700989 518.514404,777.812317 
	C523.269592,777.979980 527.242554,781.604370 527.295837,786.225769 
	C527.470276,801.356628 527.496460,816.489746 527.481689,831.621887 
	C527.478210,835.208557 525.135437,838.011230 522.113403,838.725525 
	C516.980103,839.938721 511.432617,840.253296 506.367981,838.598328 
	C502.980988,837.491577 500.947754,834.205933 500.929291,830.337219 
	C500.860229,815.856628 500.811493,801.375366 500.884796,786.895020 
	C500.909027,782.102966 504.011261,779.481506 508.591736,777.810303 
z"/>
</svg>